<?xml version="1.0" encoding="utf-8"?>
<!-- Generator: Adobe Illustrator 25.0.0, SVG Export Plug-In . SVG Version: 6.00 Build 0)  -->
<svg version="1.1" id="Layer_1" xmlns="http://www.w3.org/2000/svg" xmlns:xlink="http://www.w3.org/1999/xlink" x="0px" y="0px"
	 viewBox="0 0 244.3 40.7" style="enable-background:new 0 0 244.3 40.7;" xml:space="preserve">
<style type="text/css">
	.st0{fill:none;stroke:#75787B;stroke-width:0.5;stroke-miterlimit:10;}
	.st1{enable-background:new    ;}
	.st2{fill:#009FDF;}
	.st3{clip-path:url(#SVGID_2_);}
	.st4{clip-path:url(#SVGID_4_);}
	.st5{fill:#0028A0;}
</style>
<line class="st0" x1="169" y1="0" x2="169" y2="40.7"/>
<g class="st1">
	<path class="st2" d="M190.9,11.9h9.6l-0.7,1.9h-6.6v6.9h6.5v1.9h-6.5v7.3h7.5v1.9h-9.8V11.9z"/>
	<path class="st2" d="M204.9,28.8c1,0.6,2.5,1.3,4.3,1.3c2.1,0,4-0.9,4-3.2c0-4.8-8.7-4.2-8.7-10.1c0-2.8,2.1-5,5.8-5
		c1.8,0,3.4,0.5,4.3,0.9v2.1c-1.2-0.7-2.7-1.1-4.3-1.1c-1.8,0-3.6,0.8-3.6,2.9c0,4.5,8.7,4,8.7,10.2c0,3.3-2.6,5.3-6.4,5.3
		c-2.3,0-4-0.7-5.2-1.5L204.9,28.8z"/>
	<path class="st2" d="M235.1,30.5c-1.3,0.7-3.7,1.5-6.5,1.5c-5.9,0-9.8-4.1-9.8-10c0-6.1,4.1-10.4,10.3-10.4c2.3,0,4.3,0.6,5.4,1.1
		v2.1c-1.4-0.7-3.2-1.3-5.3-1.3c-5.1,0-8,3.4-8,8.2c0,5.1,3,8.3,7.7,8.3c1.7,0,3.1-0.4,4-0.8v-6.9h2.2V30.5z"/>
</g>
<g>
	<defs>
		<rect id="SVGID_1_" y="1.7" width="148" height="30.6"/>
	</defs>
	<clipPath id="SVGID_2_">
		<use xlink:href="#SVGID_1_"  style="overflow:visible;"/>
	</clipPath>
	<g class="st3">
		<g>
			<defs>
				<rect id="SVGID_3_" x="-504.8" y="-454.5" width="1249.7" height="965.7"/>
			</defs>
			<clipPath id="SVGID_4_">
				<use xlink:href="#SVGID_3_"  style="overflow:visible;"/>
			</clipPath>
			<g class="st4">
				<path class="st5" d="M36.9,30.5c-2.1-0.2-2.1-1.4-2.2-3.7c-0.4-6.5-0.4-14.9-0.5-19.7c0-3.2,0.3-4,3.2-4.3l1-0.1
					c0.2-0.3,0.2-0.8,0-1.1c-1.4,0.1-2.9,0.1-4,0.1c-0.9,0-1.8,0-3.4-0.1c-0.1,2.1-1.3,4.6-3.4,8.7L23.3,19
					c-1.1,2.3-2.3,4.7-3.5,6.8h-0.1c-1.1-2-2.1-4.1-3.1-6.2L11.3,9.1C9.9,6.2,8.8,3.4,9,1.7C7.5,1.8,6.3,1.8,5.2,1.8S3,1.8,1.7,1.7
					C1.3,1.9,1.2,2.5,1.5,2.8l0.7,0.1c2.8,0.5,3.1,1,3,3.9c-0.1,2.5-0.3,6.3-0.5,10.1c-0.3,4.5-0.5,7-0.8,10C3.7,30,3,30.3,1.1,30.5
					l-1,0.1c-0.3,0.3-0.2,0.8,0.1,1.1c1.5-0.1,3.1-0.1,4.6-0.1c1.7,0,3.5,0,5,0.1c0.3-0.1,0.4-0.8,0-1.1l-1.7-0.1
					c-1.8-0.1-2-0.9-2-4.2c0-3.8,0.2-7.9,0.3-10.6s0.3-5.3,0.5-8H7c1,2.1,1.9,4.4,2.9,6.5l4.1,8.6c1,2.2,3.2,6.7,4,9
					c0.1,0.1,0.2,0.2,0.4,0.2c0.2,0,0.3,0,0.5-0.2c0.8-2.1,2.9-6.3,4.9-10.3l4-7.9c0.9-1.8,2.6-5.4,2.9-5.9h0.1l0.1,18.8
					c0,2.9,0,3.6-2.2,3.8l-1.3,0.1c-0.3,0.3-0.2,0.8,0.1,1.1c1.8-0.1,3.9-0.1,5.5-0.1s3.5,0,5.3,0.1c0.3-0.3,0.4-0.8,0.1-1.1
					L36.9,30.5z"/>
				<path class="st5" d="M50.1,11.4C43.6,11.4,39,16,39,22c0,5.7,4.2,10.3,11.2,10.3c6.4,0,11-4.4,11-10.5
					C61.1,16.2,57.4,11.4,50.1,11.4 M51.1,30.9c-5.2,0.5-7.8-4.4-8.2-9c-0.5-6.3,2.8-8.9,6.1-9.1c5-0.4,7.7,4.2,8.1,9
					C57.6,27.9,54.5,30.6,51.1,30.9"/>
				<path class="st5" d="M136.7,6.1c0-2.4-1.6-4.3-3.5-4.3c-1-0.2-2,0.6-2.1,1.6c0,0.1,0,0.2,0,0.3c0,0.7,0.5,1.2,1.2,1.3
					c0,0,0,0,0.1,0c1.3,0.1,2.3,1.2,2.3,2.5c0,1.9-1.8,3.1-3.4,3.9c-0.2,0.3-0.1,0.7,0.2,0.9c0,0,0.1,0.1,0.1,0.1
					C134.2,11.5,136.7,9.3,136.7,6.1"/>
				<path class="st5" d="M144.3,20.8l-2.8-1.5c-1.8-1-3-1.9-3-3.5s1-3.1,3.6-3.1s3.8,2.3,4.2,3.9c0.3,0.3,0.9,0.3,1.2-0.1
					c0,0,0,0,0,0c0.1-1.5-0.2-3-0.6-4.4c-1.4-0.4-2.8-0.6-4.2-0.7c-4.6,0-7.1,2.3-7.1,5.6c0,2.5,1.9,4.3,4,5.4l2,1
					c2.6,1.3,3.2,2.8,3.2,4.3c0,2.1-1.5,3.3-3.8,3.3c-3,0-5-3.2-5.4-4.8c-0.2-0.3-0.6-0.4-0.9-0.2c-0.1,0.1-0.2,0.2-0.2,0.3
					c-0.1,1.6,0.2,3.2,0.9,4.7c1.6,1,3.4,1.5,5.2,1.4c4.5,0,7.4-2.2,7.4-5.7C147.9,24.1,146.5,21.9,144.3,20.8"/>
				<path class="st5" d="M103.1,12.9c-2.2-0.7-4.5-1.1-6.9-1c-3.7,0-6.2,0.1-8.7,0.3c-0.4,0.1-0.4,1,0,1.1l1.4,0.2
					c1,0.1,1.1,0.9,1.1,3.8v9.6c0,3.1-0.2,3.3-2.1,3.6L87,30.6c-0.3,0.2-0.3,1,0.1,1.1c1.8-0.1,3.2-0.1,4.6-0.1c0.7,0,1.5,0,2.4,0.1
					c1,0.1,2,0.1,3,0.1c2.4,0.1,4.7-0.4,6.8-1.4c3.4-1.6,5.5-5,5.5-8.7C109.6,17.7,107,14,103.1,12.9 M97.3,30.5
					c-3.4,0-3.9-1.5-3.9-4.3V15.4c0-1,0-1.6,0.3-1.8c0.8-0.4,1.8-0.6,2.7-0.5c5.1,0,9,2.9,9,8.4S102.7,30.5,97.3,30.5"/>
				<path class="st5" d="M128.7,11.9c-1.3,0.1-2.2,0.1-3.2,0.1s-2.1,0-3.4-0.1c-0.3,0.2-0.5,0.5-0.3,0.9c0,0.1,0.1,0.2,0.2,0.3
					l0.9,0.1c1.1,0.1,1,0.5,0.3,1.8l-1.8,3.3c-0.8,1.4-1.4,2.5-2.2,3.7c-0.7-1.2-1.4-2.4-2-3.7l-1.7-3.2c-0.7-1.4-0.6-1.7,0.4-1.9
					l0.6-0.1c0.3-0.2,0.4-0.6,0.2-0.9c-0.1-0.1-0.1-0.2-0.2-0.2c-1.4,0.1-2.5,0.1-3.8,0.1c-1.6,0-2.7,0-4.2-0.1
					c-0.3,0.1-0.4,0.9-0.1,1.1l1.2,0.2c1.2,0.2,1.6,0.6,2.6,2.5l3.3,6.1c1.1,2.1,1.3,2.4,1.3,3.8v1.7c0,2.7-0.2,3-2.1,3.2l-1.1,0.1
					c-0.3,0.2-0.3,1,0.1,1.1c2-0.1,3.4-0.1,4.9-0.1s2.9,0,4.9,0.1c0.4-0.1,0.4-0.9,0.1-1.1l-1.1-0.1c-1.9-0.2-2.1-0.5-2.1-3.2v-2.4
					c0-1.3,0.1-1.8,1.7-4.3l2.8-4.5c1.4-2.3,1.6-2.5,3-2.8l1.1-0.2c0.3-0.3,0.3-0.7,0-1C128.8,12,128.8,11.9,128.7,11.9"/>
				<path class="st5" d="M74.4,11.4c-6.6,0-11.2,4.6-11.2,10.6c0,5.7,4.2,10.3,11.2,10.3c6.4,0,11-4.4,11-10.5
					C85.4,16.2,81.7,11.4,74.4,11.4 M75.4,30.9c-5.2,0.5-7.8-4.4-8.2-9c-0.5-6.3,2.8-8.9,6.1-9.1c5-0.4,7.7,4.2,8.1,9
					C81.9,27.9,78.8,30.6,75.4,30.9"/>
			</g>
		</g>
	</g>
</g>
</svg>
